<svg version="1.2" xmlns="http://www.w3.org/2000/svg" viewBox="0 0 998.0079144699162 149.00118161925602" width="999" height="150">
	<style>
		.s0 { fill: #942940 } 
	</style>
	<g>
		<path class="s0" d="m299.56 85.4c15.34-6.14 26.21-21.09 26.21-38.62 0-22.98-18.62-41.59-41.59-41.59h-97.02v8.15l6.92 2.89v116.56l-6.92 2.87v8.14h41.57v-8.14l-6.92-2.87v-44.42h48.48l21.01 44.34-7.12 2.95v8.14h48.51v-8.14l-11.6-4.8zm-89.19 41.66c0 1.34-1.09 2.44-2.43 2.44-1.34 0-2.41-1.1-2.41-2.44v-105.11c0-1.32 1.07-2.41 2.41-2.41 1.34 0 2.43 1.09 2.43 2.41zm11.44-59.47v-41.59h55.48c11.45 0.02 20.76 9.31 20.76 20.79 0 11.5-9.31 20.8-20.79 20.8zm83.94 63.28c-1.2 0.56-2.65 0.06-3.23-1.15l-24.01-50.7 0.14-2.35 2.07-1.13c15.86-0.01 28.7-12.87 28.73-28.74 0-9.37-4.44-17.65-11.34-22.93-1.07-0.8-1.28-2.33-0.48-3.4 0.82-1.05 2.34-1.25 3.42-0.45 8.07 6.12 13.27 15.86 13.27 26.78 0 17.3-13.14 31.39-29.95 33.25l22.53 47.58c0.58 1.2 0.08 2.67-1.15 3.24zm137.82-130.86c-42.1 0-76.23 33.35-76.23 74.5 0 41.15 34.13 74.5 76.23 74.5 42.1 0 76.23-33.35 76.23-74.5 0-41.15-34.13-74.5-76.23-74.5zm-31.53 128.38c-0.72 1.12-2.23 1.45-3.35 0.71-17.99-11.48-29.91-31.64-29.91-54.59 0-22.93 11.92-43.09 29.91-54.59 1.12-0.75 2.63-0.4 3.35 0.73 0.72 1.12 0.38 2.62-0.73 3.35-16.67 10.67-27.69 29.31-27.69 50.51 0 21.24 11.04 39.86 27.69 50.52 1.11 0.72 1.45 2.22 0.73 3.36zm-16.98-53.88c0-27.74 21.71-50.25 48.51-50.25 26.8 0 48.51 22.51 48.51 50.25 0 27.77-21.71 50.24-48.51 50.24-26.8 0-48.51-22.47-48.51-50.24zm83.38 54.59c-1.14 0.74-2.63 0.41-3.34-0.71-0.74-1.14-0.41-2.64 0.72-3.36 16.66-10.66 27.7-29.28 27.7-50.52 0-21.2-11.04-39.84-27.7-50.51-1.12-0.73-1.44-2.23-0.71-3.35 0.7-1.13 2.19-1.48 3.34-0.73 17.97 11.5 29.91 31.66 29.91 54.59 0 22.95-11.94 43.11-29.92 54.59zm519.51-115.75v-8.15h-41.59v8.15l6.94 2.87v20.57l-76.23-31.59h-0.01-34.63v8.15l6.94 2.87v116.58l-6.94 2.87v8.14h41.59v-8.14l-6.95-2.87v-105.08l76.23 31.57v73.51l-6.94 2.87v8.14h41.59v-8.14l-6.93-2.87v-116.58zm-122.33 113.7c0 1.34-1.08 2.42-2.43 2.42-1.33 0-2.41-1.08-2.41-2.42v-105.09c0-1.32 1.08-2.41 2.41-2.41 1.35 0 2.43 1.09 2.43 2.41zm103.96 0c0 1.33-1.09 2.41-2.42 2.41-1.35 0-2.42-1.08-2.42-2.41v-105.1c0-1.32 1.07-2.41 2.42-2.41 1.33 0 2.42 1.09 2.42 2.41zm-217.24-113.7l6.92 2.88v116.57l-6.92 2.87v8.14h41.58v-8.14l-6.93-2.87v-116.57l6.93-2.88v-8.15h-41.58zm18.35 8.6c0-1.32 1.1-2.41 2.44-2.41 1.33 0 2.42 1.09 2.42 2.41v105.1c0 1.33-1.09 2.41-2.42 2.41-1.34 0-2.44-1.08-2.44-2.41zm-108.45-8.61l5.88 2.44-9.27 92.65-34.71-53.91-34.73 53.91-9.26-92.65 5.88-2.44v-8.15h-41.59v8.15l8.07 3.35 11.67 116.52-5.87 2.45v8.14h41.55v-8.14l-2.57-1.08 26.85-41.68 26.82 41.68-2.58 1.08v8.14h41.58v-8.14l-5.88-2.45 11.66-116.52 8.09-3.35v-8.15h-41.59zm-84.58 116.14c-1.35 0.14-2.53-0.84-2.66-2.19l-10.51-105.1c-0.13-1.33 0.84-2.52 2.17-2.65 1.33-0.13 2.51 0.85 2.64 2.18l10.52 105.11c0.13 1.32-0.83 2.5-2.16 2.65zm101.28-107.76c0.12-1.33 1.32-2.31 2.66-2.18 1.34 0.13 2.31 1.32 2.17 2.65l-10.5 105.1c-0.14 1.35-1.34 2.33-2.67 2.19-1.32-0.15-2.3-1.33-2.17-2.65zm-567.12 47.15c6.13-6.77 9.9-15.74 9.9-25.56 0-21.07-17.07-38.13-38.13-38.13h-93.55v8.15l6.94 2.87v116.58l-6.94 2.87v8.14h97.02c22.96 0 41.57-18.61 41.57-41.59 0-13.67-6.61-25.76-16.81-33.33zm-87.12-42.89h51.98c9.57 0 17.32 7.76 17.32 17.33 0 9.56-7.75 17.31-17.32 17.31h-51.98zm-11.44 101.06c0 1.33-1.07 2.41-2.43 2.41-1.32 0-2.41-1.08-2.41-2.41v-105.1c0-1.32 1.09-2.41 2.41-2.41 1.36 0 2.43 1.09 2.43 2.41zm66.91-4.02h-55.47v-41.57h55.46c11.49 0 20.77 9.3 20.77 20.76 0 11.47-9.28 20.77-20.76 20.81zm23.77 5.97c-1.08 0.8-2.59 0.6-3.41-0.46-0.79-1.06-0.62-2.58 0.45-3.4 6.92-5.26 11.38-13.55 11.38-22.92-0.02-15.88-12.89-28.71-28.77-28.76h-3.44l-1.73-0.7-0.71-1.71 0.71-1.73 1.73-0.71c13.95-0.02 25.24-11.32 25.29-25.28 0-7.87-3.59-14.85-9.18-19.52-1.04-0.86-1.18-2.39-0.32-3.4 0.85-1.04 2.39-1.17 3.4-0.32 6.66 5.51 10.93 13.89 10.93 23.24 0 11.83-6.89 22-16.84 26.93 13.74 4.22 23.79 16.86 23.79 31.96 0 10.96-5.22 20.66-13.28 26.78z"/>
	</g>
</svg>