<?xml version="1.0" encoding="utf-8"?>
<!DOCTYPE svg PUBLIC "-//W3C//DTD SVG 1.1//EN" "http://www.w3.org/Graphics/SVG/1.1/DTD/svg11.dtd">
<svg version="1.1"  xmlns="http://www.w3.org/2000/svg" xmlns:xlink="http://www.w3.org/1999/xlink" x="0px" y="0px"
	 width="841.89px" height="412.245px"
	 xml:space="preserve">
<g>
	<g>
		<path fill="#EC631C" d="M181.213,132.896c23.641,0,45.827,10.547,55.647,29.46c14.549-18.913,37.098-29.46,60.74-29.46
			c20.73,0,37.461,7.274,48.736,19.641c12.366,13.458,17.822,31.278,17.822,59.648V322.75c0,4-1.818,5.819-6.547,5.819h-30.914
			c-4.365,0-6.184-1.819-6.184-5.819v-96.382c0-26.55-1.454-36.371-8.365-44.373c-5.456-6.546-15.276-9.457-26.551-9.457
			c-8.728,0-20.004,2.911-27.277,8.002c-7.274,5.09-9.457,10.183-10.548,21.458c-0.727,9.092-0.363,24.369-0.363,40.737v80.014
			c0,4-1.818,5.819-6.183,5.819h-31.279c-4.365,0-6.184-1.819-6.184-5.819v-96.382c0-26.55-1.455-36.371-8.365-44.373
			c-5.456-6.546-15.276-9.457-26.551-9.457c-8.729,0-20.004,2.546-27.277,8.002c-6.546,4.364-9.457,10.183-10.184,21.458
			c-0.727,9.092-0.727,24.369-0.727,40.737v80.014c0,4-1.818,5.819-6.183,5.819H93.196c-4.364,0-6.183-1.819-6.183-5.819v-113.84
			c0-30.552-1.818-61.103-1.818-66.559c0-4.001,1.818-5.819,6.183-5.819h28.006c4.728,0,6.183,1.454,6.91,5.455
			c0.727,3.638,1.455,9.457,1.818,14.912C140.478,143.08,159.754,132.896,181.213,132.896z"/>
	</g>
	<g>
		<path fill="#EC631C" d="M538.262,404.355c-4.366-1.817-5.453-4.368-4.366-9.094l3.643-18.188c1.088-4.723,2.904-6.54,9.09-5.447
			c5.819,1.087,14.549,1.813,18.543,1.813c21.827,0,29.103-10.912,29.103-42.546V138.86c0-4.005,1.816-5.817,6.183-5.817h31.277
			c4.362,0,6.182,1.812,6.182,5.817v184.027c0,33.1-6.182,54.915-17.821,68.372c-11.64,13.096-29.1,18.552-49.46,18.552
			C558.63,409.811,545.898,407.631,538.262,404.355"/>
		<path fill="#61A6DA" d="M43.14,328.572H8.176c-2.114,0-3.845-1.73-3.845-3.843V195.341c0-2.113,1.731-3.849,3.845-3.849H43.14
			c2.118,0,3.845,1.735,3.845,3.849v129.388C46.984,326.841,45.258,328.572,43.14,328.572"/>
		<path fill="#61A6DA" d="M43.251,171.971H8.287c-2.114,0-3.845-1.729-3.845-3.844v-28.712c0-2.116,1.731-3.847,3.845-3.847h34.964
			c2.116,0,3.844,1.731,3.844,3.847v28.712C47.096,170.242,45.368,171.971,43.251,171.971"/>
	</g>
	<g>
		<path fill="#EC631C" d="M665.382,235.459c0-61.831,36.372-102.566,89.474-102.566c54.191,0,82.197,41.463,82.197,97.837
			c0,14.186-2.544,17.822-7.637,17.822H710.847c4.002,30.551,20.368,45.825,52.738,45.825c14.912,0,33.096-4.728,48.009-11.273
			c4.729-2.184,7.637-0.728,9.456,3.636l7.273,17.822c1.819,5.091,1.456,8.002-3.271,10.547
			c-17.821,10.184-41.827,17.094-67.65,17.094C694.844,332.204,665.382,291.105,665.382,235.459z M711.21,215.818h81.835
			c-0.728-24.005-14.186-45.462-38.189-45.462C729.76,170.356,714.849,189.268,711.21,215.818z"/>
	</g>
	<g>
		<path fill="#EC631C" d="M388.961,236.551c0-66.922,33.824-103.658,92.381-103.658c54.921,0,85.836,35.279,85.836,95.655
			c0,66.922-33.826,103.655-92.382,103.655C419.876,332.204,388.961,296.924,388.961,236.551z M522.078,231.095
			c0-34.553-11.274-60.376-41.826-60.376c-29.097,0-46.191,21.46-46.191,63.286c0,34.551,11.274,60.374,41.827,60.374
			C504.983,294.378,522.078,272.921,522.078,231.095z"/>
	</g>
	<g>
		<path fill="#EC631C" d="M634.069,169.442h-56.678c-2.116,0-3.845-1.728-3.845-3.845v-28.712c0-2.116,1.729-3.846,3.845-3.846
			h56.678c2.115,0,3.846,1.73,3.846,3.846v28.712C637.915,167.714,636.185,169.442,634.069,169.442"/>
	</g>
	<g>
		<path d="M31.691,29.705c5.967,0,11.066,2.169,14.539,5.642c5.316,5.208,7.919,13.345,7.919,22.35
			c0,21.374-12.042,31.355-25.17,31.355c-4.991,0-10.307-1.844-13.67-4.124v27.774c0,1.086-0.542,1.627-1.627,1.627H9.016
			c-1.084,0-1.627-0.542-1.627-1.627V53.791c0-8.354-0.108-15.84-0.325-21.482c0-0.976,0.542-1.519,1.628-1.519h4.339
			c1.193,0,1.736,0.434,1.844,1.519c0.108,0.977,0.434,4.014,0.434,5.316C18.998,32.959,24.856,29.705,31.691,29.705z M31.04,37.625
			c-4.881,0-9.221,1.627-12.042,4.34c-3.039,2.929-3.69,6.509-3.69,18.878v16.708c3.146,2.387,8.029,4.231,13.128,4.231
			c10.523,0,17.359-9.331,17.359-23.218C45.795,44.026,40.587,37.625,31.04,37.625z"/>
		<path d="M83.121,75.707c0,4.773,0.433,6.292,4.231,6.292c1.085,0,1.519,0.325,1.519,1.411v2.169c0,1.193-0.217,1.52-1.085,1.844
			c-0.759,0.326-2.495,0.651-4.014,0.651c-3.581,0-6.076-1.519-7.27-3.797c-1.085-1.953-1.302-4.991-1.302-10.633V57.696
			l-6.943,5.642c-0.651,0.542-1.302,0.325-1.302-0.543v-5.208c0-1.084,0.216-1.627,1.085-2.278l7.16-5.858V31.766
			c0-19.311-0.759-23.651-0.759-25.604c0-0.977,0.325-1.519,1.41-1.519h4.882c0.977,0,1.411,0.325,1.519,1.193
			c0.434,3.363,0.869,12.694,0.869,27.341v9.764l9.004-7.377c0.651-0.542,1.302-0.326,1.302,0.542v5.208
			c0,1.085-0.218,1.627-1.085,2.279l-9.222,7.595V75.707z"/>
		<path d="M144.422,79.612c-3.472,6.076-9.657,9.548-17.034,9.548c-16.491,0-23.327-13.996-23.327-28.751
			c0-19.095,11.067-30.704,24.628-30.704c6.293,0,12.042,2.82,15.623,7.269c0.109-1.41,0.326-4.124,0.542-4.991
			c0.217-0.977,0.76-1.193,1.627-1.193h3.905c1.302,0,1.627,0.434,1.627,1.411c-0.325,5.858-0.542,12.368-0.542,17.793v13.345
			c0,7.92,0.65,17.359,1.628,23.108c0.216,1.085-0.11,1.627-1.412,1.627h-4.123c-1.193,0-1.736-0.433-1.953-1.411
			C145.181,84.928,144.639,82.324,144.422,79.612z M139.539,76.683c2.496-3.147,4.014-7.919,4.014-14.43V44.46
			c-2.603-4.123-8.679-7.595-14.212-7.595c-12.043,0-16.925,11.175-16.925,22.892c0,12.694,4.99,22.242,15.949,22.242
			C132.487,81.999,136.827,80.155,139.539,76.683z"/>
		<path d="M170.789,60.409c0-20.396,11.934-30.704,26.038-30.704c6.292,0,12.043,1.736,17.25,5.1
			c0.977,0.65,0.977,1.301,0.434,2.386l-1.736,3.472c-0.65,1.194-1.626,1.085-2.495,0.542c-4.774-2.82-8.68-4.123-13.345-4.123
			c-10.524,0-17.792,8.462-17.792,22.784c0,14.104,7.485,21.916,17.684,21.916c4.557,0,9.331-1.411,13.562-3.472
			c1.302-0.651,1.953-0.326,2.386,0.759l1.194,3.254c0.434,1.086,0.325,1.845-0.651,2.387c-5.099,2.821-10.958,4.449-17.576,4.449
			C180.879,89.16,170.789,77.876,170.789,60.409z"/>
		<path d="M261.276,98.707c0,3.472,2.386,4.882,5.641,4.882c1.084,0,2.82-0.217,4.339-0.542c0.869-0.217,1.303,0,1.411,0.868
			l0.542,3.255c0.108,0.977,0,1.303-0.976,1.628c-1.953,0.651-4.557,1.085-7.161,1.085c-8.354,0-11.5-5.1-11.5-9.005
			c0-4.991,2.496-9.114,6.618-12.151c-2.061,0.325-4.122,0.434-6.292,0.434c-17.792,0-26.147-11.067-26.147-28.208
			c0-18.335,10.09-31.246,25.93-31.246c15.406,0,22.892,12.585,22.892,29.293c0,2.387-0.65,3.363-1.844,3.363h-38.623
			c0.217,13.237,6.835,19.421,19.528,19.421c4.123,0,9.004-0.977,14.212-3.472c0.978-0.435,1.627-0.326,2.063,0.651l1.409,3.363
			c0.435,1.086,0.218,1.519-0.867,2.278C264.422,90.027,261.276,94.042,261.276,98.707z M236.323,55.418h32.114
			c0-8.572-4.449-18.335-14.647-18.335C243.808,37.083,237.842,43.917,236.323,55.418z"/>
		<path d="M324.751,60.843c0-20.831,11.067-31.138,26.69-31.138c17.032,0,24.41,12.368,24.41,28.316
			c0,20.831-11.067,31.138-26.689,31.138C332.128,89.16,324.751,76.791,324.751,60.843z M367.497,58.89
			c0-9.548-3.146-22.024-16.49-22.024c-8.788,0-17.901,5.967-17.901,23.109c0,9.547,3.146,22.024,16.492,22.024
			C358.385,81.999,367.497,76.032,367.497,58.89z"/>
		<path d="M420.988,29.705c6.075,0,11.717,2.061,15.515,5.75c4.015,4.014,5.532,9.765,5.532,18.77v32.331
			c0,0.977-0.542,1.519-1.627,1.519h-4.665c-1.085,0-1.627-0.542-1.627-1.519V58.89c0-9.221-0.217-13.996-3.255-17.468
			c-2.279-2.604-6.185-3.905-11.392-3.905c-4.775,0-10.2,1.736-13.02,4.665c-1.735,1.953-2.496,4.34-2.82,8.354
			c-0.326,3.797-0.435,9.331-0.435,16.383v19.636c0,0.977-0.542,1.519-1.627,1.519h-4.665c-1.085,0-1.627-0.542-1.627-1.519V53.791
			c0-8.354-0.109-15.84-0.326-21.482c0-0.976,0.542-1.519,1.628-1.519h4.34c1.193,0,1.736,0.434,1.844,1.519
			c0.109,0.977,0.326,3.689,0.326,4.992C406.884,32.959,413.937,29.705,420.988,29.705z"/>
		<path d="M471.333,75.707c0,4.773,0.435,6.292,4.232,6.292c1.085,0,1.519,0.325,1.519,1.411v2.169c0,1.193-0.217,1.52-1.085,1.844
			c-0.759,0.326-2.494,0.651-4.015,0.651c-3.579,0-6.075-1.519-7.268-3.797c-1.085-1.953-1.303-4.991-1.303-10.633V32.092
			c0-19.313-0.65-23.652-0.65-25.605c0-0.977,0.325-1.519,1.409-1.519h4.883c0.978,0,1.41,0.326,1.52,1.194
			c0.434,3.363,0.758,12.693,0.758,27.34V75.707z"/>
		<path d="M494.553,18.855c-1.085,0-1.627-0.542-1.627-1.52V9.634c0-0.977,0.542-1.519,1.627-1.519h7.377
			c1.194,0,1.735,0.542,1.735,1.519v7.702c0,0.978-0.541,1.52-1.735,1.52H494.553z M495.964,88.074
			c-1.086,0-1.628-0.542-1.628-1.519V32.309c0-0.976,0.542-1.519,1.628-1.519h4.664c1.085,0,1.628,0.543,1.628,1.519v54.247
			c0,0.977-0.543,1.519-1.628,1.519H495.964z"/>
		<path d="M550.536,29.705c6.074,0,11.716,2.061,15.515,5.75c4.013,4.014,5.532,9.765,5.532,18.77v32.331
			c0,0.977-0.543,1.519-1.627,1.519h-4.666c-1.086,0-1.627-0.542-1.627-1.519V58.89c0-9.221-0.217-13.996-3.256-17.468
			c-2.277-2.604-6.183-3.905-11.391-3.905c-4.773,0-10.199,1.736-13.021,4.665c-1.735,1.953-2.494,4.34-2.818,8.354
			c-0.327,3.797-0.437,9.331-0.437,16.383v19.636c0,0.977-0.541,1.519-1.628,1.519h-4.663c-1.086,0-1.627-0.542-1.627-1.519V53.791
			c0-8.354-0.109-15.84-0.326-21.482c0-0.976,0.543-1.519,1.628-1.519h4.339c1.193,0,1.736,0.434,1.844,1.519
			c0.109,0.977,0.324,3.689,0.324,4.992C536.43,32.959,543.483,29.705,550.536,29.705z"/>
		<path d="M590.032,60.951c0-18.335,10.091-31.246,25.93-31.246c15.407,0,22.892,12.585,22.892,29.293
			c0,2.387-0.651,3.363-1.844,3.363h-38.623c0.217,13.237,6.833,19.421,19.528,19.421c4.122,0,9.005-0.977,14.212-3.472
			c0.978-0.435,1.52-0.326,2.061,0.651l1.411,3.363c0.434,1.086,0.217,1.627-0.868,2.278c-5.098,3.039-11.175,4.557-18.552,4.557
			C598.387,89.16,590.032,78.093,590.032,60.951z M598.604,55.418h32.112c0-8.572-4.446-18.335-14.645-18.335
			C606.088,37.083,600.123,43.917,598.604,55.418z"/>
	</g>
</g>
</svg>
