<svg height="44" viewBox="0 0 88.382048 49.580146" width="150" xmlns="http://www.w3.org/2000/svg"
     xmlns:xlink="http://www.w3.org/1999/xlink">
    <linearGradient id="a" gradientUnits="userSpaceOnUse" x1="42.93" x2="62.93" y1="-2.93" y2="17.07">
        <stop offset="0" stop-color="#82bc00" stop-opacity="0"/>
        <stop offset="1" stop-color="#82bc00"/>
    </linearGradient>
    <g transform="matrix(.8217 0 0 .82428 -38.77 -.06)">
        <g fill="#4f008c">
            <path d="m87.4 34.2v-9.8h4.9v-5h-4.9v-6.1h-6.2v6.1h-3.4v5h3.4v10.6c0 5 2.9 7.2 7.4 7.2 1.7 0 3.2-.3 4-.7v-5.5c-.7.5-1.8.8-2.7.8-1.5-.1-2.5-.9-2.5-2.6z"/>
            <path d="m100.8 19.4h-6.2l6.8 22.3h5.7l3.7-13.7 3.7 13.7h5.7l6.8-22.3h-6l-4 14.2-3.8-14.2h-4.7l-3.7 14.2z"/>
            <path d="m130.3 19.4h6.2v22.4h-6.2z"/>
            <path d="m153.6 28.5-4.6-1.1c-1.4-.4-2-.9-2-1.8 0-1.4 1.5-2.1 3-2.1 2.1 0 3.1 1 3.5 2.2h5.9c-.8-4.2-3.9-6.9-9.5-6.9-5 0-8.9 2.9-8.9 7.3 0 3.8 2.4 5.5 5.8 6.3l4.5 1c1.6.4 2.3.9 2.3 1.9 0 1.5-1.3 2.2-3.2 2.2s-3.3-.9-3.8-2.5h-6.2c.7 4.6 4.5 7.2 10 7.2 5.2 0 9.2-2.7 9.2-7.3 0-3.3-2.1-5.5-6-6.4z"/>
            <path d="m171.3 34.2v-9.8h4.9v-5h-4.9v-6.1h-6.2v6.1h-3.4v5h3.4v10.6c0 5 2.9 7.2 7.4 7.2 1.7 0 3.2-.3 4-.7v-5.5c-.7.5-1.8.8-2.7.8-1.6-.1-2.5-.9-2.5-2.6z"/>
            <path d="m189.8 18.9c-6.5 0-11.7 5.2-11.7 11.7s5.2 11.7 11.7 11.7 11.7-5.2 11.7-11.7-5.2-11.7-11.7-11.7zm0 17.3c-3.1 0-5.7-2.6-5.7-5.7s2.6-5.7 5.7-5.7 5.7 2.6 5.7 5.7-2.6 5.7-5.7 5.7z"/>
            <circle cx="133.4" cy="13.3" r="3.1"/>
            <path d="m20 20v40h20v-60h-40v20z"/>
        </g>
        <path d="m40 0c0 11.1 9 20 20 20v-20z" fill="#009d4e"/>
        <path d="m40 0c0 11.1 9 20 20 20v-20z" fill="url(#a)"/>
    </g>
</svg>
